<svg width="108" height="112" viewBox="0 0 108 112" fill="none" xmlns="http://www.w3.org/2000/svg">
<path d="M75.8699 108.156L101.965 93.0906C104.943 91.3725 107.189 87.4845 107.189 84.0443V53.9755C107.189 51.8667 106.315 50.154 104.791 49.2739C103.268 48.3939 101.348 48.4933 99.5224 49.546L92.0901 53.8304V42.638C92.0901 39.1994 89.8444 35.311 86.8668 33.5918L78.7365 28.8967L84.8819 25.3522C90.1068 22.339 90.1068 22.339 90.1068 20.8968C90.1068 19.4545 90.1068 19.4529 84.8835 16.438L58.7862 1.37183C55.8089 -0.349083 51.3192 -0.349083 48.3418 1.37183L22.2445 16.438C17.0214 19.4545 17.0214 19.4545 17.0214 20.8885C17.0214 22.3227 17.0214 22.3227 22.2412 25.3392L28.3915 28.8967L20.2612 33.5918C17.2838 35.311 15.0382 39.1978 15.0382 42.638V53.6968L7.7487 49.4842C5.92349 48.4298 4.00213 48.3288 2.48003 49.2071C0.954671 50.0871 0.0811768 51.7998 0.0811768 53.9087V83.992C0.0811768 87.4306 2.32684 91.3207 5.30422 93.038L31.3445 108.073C33.1697 109.126 35.0927 109.227 36.6148 108.347C38.1402 107.469 39.0136 105.754 39.0152 103.647L39.0217 94.9356L48.3418 100.316C51.3192 102.036 55.8089 102.036 58.7862 100.316L68.1551 94.9079L68.1486 104.18C68.1486 104.201 68.1486 104.221 68.1486 104.242C68.1486 109.664 68.1518 109.669 69.3122 110.401L69.4784 110.496C70.6973 111.141 70.6974 111.141 75.8699 108.156ZM24.689 21.107C24.5619 21.0336 24.4364 20.9619 24.3125 20.8885C24.4364 20.8169 24.5619 20.7452 24.689 20.6702L50.7862 5.60405C52.2416 4.76314 54.8881 4.76314 56.3417 5.60405L82.4391 20.6702C82.5694 20.7468 82.6982 20.8218 82.8253 20.8951C82.6982 20.9684 82.5694 21.0434 82.4391 21.1184L73.8459 26.0741L58.7879 17.3783C55.8105 15.659 51.3208 15.659 48.3434 17.3783L33.2837 26.0741L24.689 21.107ZM22.7057 37.8256L33.2772 31.7209L48.3108 40.4118C51.2882 42.1328 55.7779 42.1344 58.7553 40.4167L73.8426 31.7176L84.4207 37.8256C84.538 37.894 84.6554 37.9869 84.7711 38.0717L53.5355 56.0793L22.3683 38.0652C22.4808 37.982 22.5916 37.8908 22.7057 37.8256ZM34.1263 103.644C34.1263 103.786 34.1149 103.9 34.1002 103.992C34.0155 103.958 33.9112 103.909 33.7889 103.84L7.7487 88.8045C6.29342 87.9636 4.97014 85.6706 4.97014 83.992V53.9087C4.97014 53.7702 4.97992 53.6561 4.99459 53.5664C5.07933 53.6007 5.182 53.6479 5.30096 53.7179L15.0382 59.3468V75.0599C15.0382 78.4985 17.2838 82.3885 20.2612 84.1062L34.1344 92.116L34.1263 103.644ZM50.7862 96.0843L39.025 89.2937L39.0365 73.5998C39.0365 70.1629 36.794 66.2745 33.8199 64.5536L19.9288 56.5227V42.638C19.9288 42.5353 19.9483 42.4245 19.958 42.3185L51.091 60.3132L51.0666 96.211C50.9737 96.1691 50.8726 96.1334 50.7862 96.0843ZM56.3433 96.0843C56.2244 96.1521 56.0875 96.2066 55.9555 96.2637L55.9784 60.3165L87.1732 42.3299C87.183 42.431 87.2025 42.5385 87.2025 42.6363V56.6481L73.3977 64.6073C70.4204 66.325 68.1731 70.2117 68.1698 73.6503L68.16 89.2589L56.3433 96.0843ZM73.0457 92.0847L86.8636 84.1062C89.8426 82.3885 92.0883 78.5001 92.0883 75.0599V59.4772L101.963 53.7832C102.084 53.7131 102.189 53.6642 102.273 53.6316C102.288 53.7213 102.298 53.8353 102.298 53.9771V84.0443C102.298 85.7228 100.975 88.0173 99.5198 88.8566L73.4238 103.923C73.2934 103.998 73.1647 104.073 73.0375 104.146L73.0457 92.0847Z" fill="#43B6FF"/>
</svg>
