<svg width="580" height="152" viewBox="0 0 580 152" fill="none" xmlns="http://www.w3.org/2000/svg">
<path d="M95.8699 128.156L121.965 113.091C124.943 111.372 127.189 107.484 127.189 104.044V73.9755C127.189 71.8667 126.315 70.154 124.791 69.2739C123.268 68.3939 121.348 68.4933 119.522 69.546L112.09 73.8304V62.638C112.09 59.1994 109.844 55.311 106.867 53.5918L98.7365 48.8967L104.882 45.3522C110.107 42.339 110.107 42.339 110.107 40.8968C110.107 39.4545 110.107 39.4529 104.884 36.438L78.7862 21.3718C75.8089 19.6509 71.3192 19.6509 68.3418 21.3718L42.2445 36.438C37.0214 39.4545 37.0214 39.4545 37.0214 40.8885C37.0214 42.3227 37.0214 42.3227 42.2412 45.3392L48.3915 48.8967L40.2612 53.5918C37.2838 55.311 35.0382 59.1978 35.0382 62.638V73.6968L27.7487 69.4842C25.9235 68.4298 24.0021 68.3288 22.48 69.2071C20.9547 70.0871 20.0812 71.7998 20.0812 73.9087V103.992C20.0812 107.431 22.3268 111.321 25.3042 113.038L51.3445 128.073C53.1697 129.126 55.0927 129.227 56.6148 128.347C58.1402 127.469 59.0136 125.754 59.0152 123.647L59.0217 114.936L68.3418 120.316C71.3192 122.036 75.8089 122.036 78.7862 120.316L88.1551 114.908L88.1486 124.18C88.1486 124.201 88.1486 124.221 88.1486 124.242C88.1486 129.664 88.1518 129.669 89.3122 130.401L89.4784 130.496C90.6973 131.141 90.6974 131.141 95.8699 128.156ZM44.689 41.107C44.5619 41.0336 44.4364 40.9619 44.3125 40.8885C44.4364 40.8169 44.5619 40.7452 44.689 40.6702L70.7862 25.6041C72.2416 24.7631 74.8881 24.7631 76.3417 25.6041L102.439 40.6702C102.569 40.7468 102.698 40.8218 102.825 40.8951C102.698 40.9684 102.569 41.0434 102.439 41.1184L93.8459 46.0741L78.7879 37.3783C75.8105 35.659 71.3208 35.659 68.3434 37.3783L53.2837 46.0741L44.689 41.107ZM42.7057 57.8256L53.2772 51.7209L68.3108 60.4118C71.2882 62.1328 75.7779 62.1344 78.7553 60.4167L93.8426 51.7176L104.421 57.8256C104.538 57.894 104.655 57.9869 104.771 58.0717L73.5355 76.0793L42.3683 58.0652C42.4808 57.982 42.5916 57.8908 42.7057 57.8256ZM54.1263 123.644C54.1263 123.786 54.1149 123.9 54.1002 123.992C54.0155 123.958 53.9112 123.909 53.7889 123.84L27.7487 108.804C26.2934 107.964 24.9701 105.671 24.9701 103.992V73.9087C24.9701 73.7702 24.9799 73.6561 24.9946 73.5664C25.0793 73.6007 25.182 73.6479 25.301 73.7179L35.0382 79.3468V95.0599C35.0382 98.4985 37.2838 102.388 40.2612 104.106L54.1344 112.116L54.1263 123.644ZM70.7862 116.084L59.025 109.294L59.0365 93.5998C59.0365 90.1629 56.794 86.2745 53.8199 84.5536L39.9288 76.5227V62.638C39.9288 62.5353 39.9483 62.4245 39.958 62.3185L71.091 80.3132L71.0666 116.211C70.9737 116.169 70.8726 116.133 70.7862 116.084ZM76.3433 116.084C76.2244 116.152 76.0875 116.207 75.9555 116.264L75.9784 80.3165L107.173 62.3299C107.183 62.431 107.203 62.5385 107.203 62.6363V76.6481L93.3977 84.6073C90.4204 86.325 88.1731 90.2117 88.1698 93.6503L88.16 109.259L76.3433 116.084ZM93.0457 112.085L106.864 104.106C109.843 102.388 112.088 98.5001 112.088 95.0599V79.4772L121.963 73.7832C122.084 73.7131 122.189 73.6642 122.273 73.6316C122.288 73.7213 122.298 73.8353 122.298 73.9771V104.044C122.298 105.723 120.975 108.017 119.52 108.857L93.4238 123.923C93.2934 123.998 93.1647 124.073 93.0375 124.146L93.0457 112.085Z" fill="#43B6FF"/>
<path d="M181.249 37.3442C182.276 37.3442 183.15 37.7039 183.869 38.4233C184.589 39.1427 184.948 40.0162 184.948 41.0439V48.5462C184.948 49.5739 184.589 50.4474 183.869 51.1668C183.15 51.8862 182.276 52.2459 181.249 52.2459H170.663C169.704 52.2459 168.865 51.8862 168.145 51.1668C167.426 50.4474 167.066 49.5739 167.066 48.5462V41.0439C167.066 40.0162 167.426 39.1427 168.145 38.4233C168.865 37.7039 169.704 37.3442 170.663 37.3442H181.249ZM227.187 37.3442C228.146 37.3442 228.985 37.7039 229.705 38.4233C230.424 39.1427 230.784 40.0162 230.784 41.0439V48.5462C230.784 49.5739 230.424 50.4474 229.705 51.1668C228.985 51.8862 228.146 52.2459 227.187 52.2459H206.53V110.62C206.53 111.579 206.17 112.418 205.451 113.137C204.732 113.857 203.892 114.217 202.933 114.217H195.02C193.992 114.217 193.119 113.857 192.399 113.137C191.68 112.418 191.32 111.579 191.32 110.62V41.0439C191.32 40.0162 191.68 39.1427 192.399 38.4233C193.119 37.7039 193.992 37.3442 195.02 37.3442H227.187V37.3442ZM288.952 83.6937L304.265 107.228C304.607 107.776 304.796 108.393 304.83 109.078C304.864 109.763 304.727 110.38 304.419 110.928C304.111 111.476 303.665 111.921 303.083 112.264C302.501 112.606 301.901 112.778 301.284 112.778H292.035C291.419 112.778 290.836 112.624 290.288 112.315C289.74 112.007 289.329 111.613 289.055 111.133L273.639 86.5713H255.449V109.181C255.449 110.14 255.089 110.979 254.37 111.699C253.65 112.418 252.811 112.778 251.852 112.778H244.144C243.185 112.778 242.346 112.418 241.626 111.699C240.907 110.979 240.547 110.14 240.547 109.181V40.9412C240.547 39.982 240.907 39.1427 241.626 38.4233C242.346 37.7039 243.185 37.3442 244.144 37.3442H276.825C284.704 37.3442 291.093 39.588 295.992 44.0757C300.891 48.5633 303.34 54.6439 303.34 62.3174C303.34 67.2504 302.261 71.4811 300.103 75.0096C297.944 78.538 294.776 81.1929 290.596 82.9743C290.322 83.1113 289.877 83.3169 289.26 83.5909L288.952 83.6937ZM255.449 51.8348V72.0806H275.489C281.381 72.0806 285.389 70.402 287.513 67.0449C288.198 65.8116 288.541 64.2358 288.541 62.3174C288.541 59.0973 287.479 56.5623 285.355 54.7124C283.026 52.794 279.874 51.8348 275.9 51.8348H255.449V51.8348ZM377.54 37.3442C378.499 37.3442 379.339 37.7039 380.058 38.4233C380.777 39.1427 381.137 39.982 381.137 40.9412V79.7884C381.137 89.7914 378.088 97.9274 371.991 104.196C365.893 110.465 358.065 113.6 348.508 113.6C338.95 113.6 331.122 110.465 325.024 104.196C318.927 97.9274 315.878 89.7914 315.878 79.7884V40.9412C315.878 39.982 316.238 39.1427 316.957 38.4233C317.676 37.7039 318.516 37.3442 319.475 37.3442H327.183C328.142 37.3442 328.981 37.7039 329.701 38.4233C330.42 39.1427 330.78 39.982 330.78 40.9412V79.994C330.78 86.3657 332.595 91.2302 336.226 94.5874C339.31 97.4649 343.386 98.9037 348.456 98.9037C353.526 98.9037 357.637 97.4649 360.789 94.5874C364.42 91.1617 366.235 86.2972 366.235 79.994V40.9412C366.235 39.982 366.578 39.1427 367.263 38.4233C367.948 37.7039 368.77 37.3442 369.73 37.3442H377.54V37.3442ZM451.227 74.2388C454.789 76.4312 457.393 79.5829 459.037 83.6937C459.996 85.8861 460.476 88.5924 460.476 91.8126C460.476 96.8141 459.14 101.011 456.468 104.402C453.796 107.793 449.891 110.311 444.752 111.956C441.532 113.052 437.729 113.6 433.345 113.6H400.561C399.602 113.6 398.762 113.24 398.043 112.521C397.323 111.801 396.964 110.962 396.964 110.003V102.603C396.964 101.576 397.323 100.702 398.043 99.9828C398.762 99.2634 399.602 98.9037 400.561 98.9037H434.167C438.14 98.9037 441.087 98.1843 443.005 96.7455C444.649 95.3753 445.471 93.5083 445.471 91.1445C445.471 88.7808 444.615 86.8453 442.902 85.338C440.778 83.4881 437.592 82.5632 433.345 82.5632H400.561C399.602 82.5632 398.762 82.2035 398.043 81.4841C397.323 80.7647 396.964 79.8912 396.964 78.8635V71.7723C396.964 70.8131 397.323 69.9738 398.043 69.2544C398.762 68.535 399.602 68.1753 400.561 68.1753H431.495C434.441 68.1753 436.736 67.6615 438.38 66.6338C439.545 65.9487 440.47 64.9552 441.155 63.6534C441.635 62.6943 441.874 61.5809 441.874 60.3134C441.874 59.0459 441.703 57.8983 441.361 56.8706C441.087 56.0484 440.607 55.2948 439.922 54.6096C438.415 52.8968 435.914 52.0404 432.42 52.0404H400.561C399.602 52.0404 398.762 51.6807 398.043 50.9613C397.323 50.2419 396.964 49.3684 396.964 48.3406V40.9412C396.964 39.982 397.323 39.1427 398.043 38.4233C398.762 37.7039 399.602 37.3442 400.561 37.3442H431.495C439.99 37.3442 446.533 39.7422 451.124 44.5381C455.029 48.4434 456.982 53.3421 456.982 59.2343C456.982 65.5376 455.063 70.5391 451.227 74.2388V74.2388ZM484.319 37.3442C485.278 37.3442 486.117 37.7039 486.837 38.4233C487.556 39.1427 487.916 39.982 487.916 40.9412V109.181C487.916 110.14 487.556 110.979 486.837 111.699C486.117 112.418 485.278 112.778 484.319 112.778H476.611C475.652 112.778 474.812 112.418 474.093 111.699C473.374 110.979 473.014 110.14 473.014 109.181V40.9412C473.014 39.982 473.374 39.1427 474.093 38.4233C474.812 37.7039 475.652 37.3442 476.611 37.3442H484.319V37.3442ZM556.669 37.3442C557.628 37.3442 558.45 37.7039 559.136 38.4233C559.821 39.1427 560.163 39.982 560.163 40.9412V48.3406C560.163 49.2998 559.821 50.1391 559.136 50.8585C558.45 51.5779 557.628 51.9376 556.669 51.9376H536.423V109.181C536.423 110.14 536.064 110.979 535.344 111.699C534.625 112.418 533.786 112.778 532.826 112.778H525.119C524.091 112.778 523.234 112.418 522.549 111.699C521.864 110.979 521.522 110.14 521.522 109.181V51.9376H501.276C500.317 51.9376 499.477 51.5779 498.758 50.8585C498.039 50.1391 497.679 49.2998 497.679 48.3406V40.9412C497.679 39.982 498.039 39.1427 498.758 38.4233C499.477 37.7039 500.317 37.3442 501.276 37.3442H556.669V37.3442Z" fill="#020E13"/>
</svg>
