<svg width="121" height="125" viewBox="0 0 121 125" fill="none" xmlns="http://www.w3.org/2000/svg">
<path
    d="M85.0024 121.175L114.239 104.296C117.575 102.371 120.091 98.015 120.091 94.1607V60.4725C120.091 58.1099 119.112 56.191 117.405 55.205C115.698 54.2191 113.547 54.3305 111.502 55.5099L103.175 60.31V47.7703C103.175 43.9178 100.659 39.5614 97.323 37.6352L88.214 32.375L95.0992 28.4039C100.953 25.0279 100.953 25.0279 100.953 23.4121C100.953 21.7962 100.953 21.7944 95.101 18.4166L65.8623 1.53696C62.5266 -0.391104 57.4965 -0.391104 54.1607 1.53696L24.9221 18.4166C19.0703 21.7962 19.0703 21.7962 19.0703 23.4029C19.0703 25.0097 19.0703 25.0097 24.9184 28.3893L31.809 32.375L22.7 37.6352C19.3643 39.5614 16.8483 43.916 16.8483 47.7703V60.1603L8.68141 55.4406C6.6365 54.2593 4.48386 54.1461 2.77855 55.1302C1.06958 56.1161 0.0909424 58.035 0.0909424 60.3977V94.1022C0.0909424 97.9547 2.60692 102.313 5.94269 104.237L35.1174 121.082C37.1623 122.262 39.3168 122.375 41.0221 121.389C42.7311 120.405 43.7097 118.484 43.7115 116.123L43.7188 106.363L54.1607 112.391C57.4965 114.318 62.5266 114.318 65.8623 112.391L76.359 106.332L76.3517 116.72C76.3517 116.744 76.3517 116.766 76.3517 116.79C76.3517 122.864 76.3553 122.87 77.6553 123.69L77.8415 123.797C79.2072 124.519 79.2073 124.519 85.0024 121.175ZM27.6608 23.6476C27.5184 23.5654 27.3778 23.4851 27.239 23.4029C27.3778 23.3226 27.5184 23.2423 27.6608 23.1583L56.8994 6.27861C58.5299 5.33648 61.495 5.33648 63.1236 6.27861L92.3623 23.1583C92.5083 23.2441 92.6526 23.3281 92.795 23.4103C92.6526 23.4924 92.5083 23.5764 92.3623 23.6604L82.7347 29.2127L65.8642 19.4701C62.5284 17.5439 57.4983 17.5439 54.1625 19.4701L37.2901 29.2127L27.6608 23.6476ZM25.4388 42.3787L37.2828 35.5391L54.126 45.2762C57.4618 47.2043 62.4919 47.2061 65.8277 45.2817L82.7311 35.5355L94.5825 42.3787C94.7139 42.4553 94.8454 42.5594 94.975 42.6544L59.9796 62.8296L25.0608 42.6471C25.1868 42.5539 25.311 42.4517 25.4388 42.3787ZM38.2341 116.12C38.2341 116.279 38.2213 116.406 38.2049 116.509C38.1099 116.472 37.9931 116.417 37.8561 116.339L8.68141 99.4939C7.05096 98.5518 5.56839 95.9828 5.56839 94.1022V60.3977C5.56839 60.2425 5.57935 60.1147 5.59578 60.0142C5.69072 60.0526 5.80575 60.1055 5.93903 60.184L16.8483 66.4904V84.0949C16.8483 87.9474 19.3643 92.3056 22.7 94.2301L38.2432 103.204L38.2341 116.12ZM56.8994 107.65L43.7225 100.042L43.7353 82.459C43.7353 78.6084 41.2229 74.252 37.8908 72.3239L22.3276 63.3263V47.7703C22.3276 47.6553 22.3495 47.5311 22.3604 47.4124L57.2408 67.5731L57.2135 107.792C57.1094 107.745 56.9962 107.705 56.8994 107.65ZM63.1254 107.65C62.9922 107.726 62.8388 107.787 62.6909 107.851L62.7165 67.5768L97.6663 47.4252C97.6772 47.5384 97.6991 47.6589 97.6991 47.7685V63.4669L82.2326 72.3841C78.8969 74.3086 76.3791 78.6631 76.3754 82.5156L76.3644 100.003L63.1254 107.65ZM81.8382 103.169L97.3194 94.2301C100.657 92.3056 103.173 87.9492 103.173 84.0949V66.6365L114.236 60.2571C114.372 60.1786 114.489 60.1238 114.584 60.0873C114.601 60.1877 114.612 60.3155 114.612 60.4743V94.1607C114.612 96.0413 113.129 98.612 111.499 99.5523L82.2618 116.432C82.1158 116.516 81.9715 116.6 81.8291 116.682L81.8382 103.169Z"
    fill="#1a1a1a"
  />
</svg>
