<svg width="400" height="83" viewBox="0 0 400 83" fill="none" xmlns="http://www.w3.org/2000/svg">
<path d="M56.6076 80.723L76.0988 69.4699C78.3227 68.187 80 65.2827 80 62.7132V40.2544C80 38.6793 79.3476 37.4 78.2095 36.7427C77.0714 36.0854 75.6375 36.1597 74.2742 36.946L68.7225 40.1461V31.7863C68.7225 29.2179 67.0452 26.3137 64.8214 25.0295L58.7487 21.5227L63.3388 18.8753C67.2412 16.6247 67.2412 16.6247 67.2412 15.5474C67.2412 14.4702 67.2412 14.469 63.34 12.2172L43.8476 0.964031C41.6238 -0.321344 38.2703 -0.321344 36.0465 0.964031L16.5541 12.2172C12.6529 14.4702 12.6529 14.4702 12.6529 15.5414C12.6529 16.6125 12.6529 16.6125 16.5516 18.8656L21.1454 21.5227L15.0727 25.0295C12.8489 26.3137 11.1716 29.2167 11.1716 31.7863V40.0463L5.72698 36.8998C4.3637 36.1122 2.92861 36.0368 1.79174 36.6928C0.652425 37.3501 0 38.6294 0 40.2045V62.6742C0 65.2425 1.67732 68.148 3.90116 69.431L23.351 80.661C24.7143 81.4473 26.1506 81.5227 27.2874 80.8654C28.4268 80.2094 29.0792 78.9289 29.0804 77.355L29.0853 70.8478L36.0465 74.867C38.2703 76.1512 41.6238 76.1512 43.8476 74.867L50.8454 70.8271L50.8405 77.753C50.8405 77.7689 50.8405 77.7835 50.8405 77.7993C50.8405 81.8489 50.8429 81.8526 51.7096 82.3991L51.8337 82.4709C52.7442 82.9517 52.7442 82.9517 56.6076 80.723ZM18.3799 15.7045C18.2849 15.6497 18.1912 15.5961 18.0987 15.5414C18.1912 15.4878 18.2849 15.4342 18.3799 15.3782L37.8723 4.12513C38.9593 3.49705 40.936 3.49705 42.0218 4.12513L61.5142 15.3782C61.6116 15.4355 61.7077 15.4915 61.8027 15.5462C61.7077 15.601 61.6116 15.657 61.5142 15.713L55.0959 19.4145L43.8488 12.9195C41.625 11.6353 38.2716 11.6353 36.0477 12.9195L24.7995 19.4145L18.3799 15.7045ZM16.8985 28.1918L24.7946 23.6322L36.0234 30.1235C38.2472 31.4089 41.6006 31.4101 43.8245 30.1272L55.0934 23.6297L62.9943 28.1918C63.082 28.243 63.1696 28.3123 63.256 28.3756L39.9257 41.8258L16.6466 28.3708C16.7306 28.3087 16.8133 28.2405 16.8985 28.1918ZM25.4288 77.3526C25.4288 77.4585 25.4202 77.5437 25.4093 77.6118C25.346 77.5875 25.2681 77.551 25.1768 77.4986L5.72698 66.2686C4.64001 65.6406 3.65163 63.9279 3.65163 62.6742V40.2045C3.65163 40.101 3.65894 40.0158 3.66989 39.9489C3.73319 39.9744 3.80987 40.0097 3.89873 40.0621L11.1716 44.2663V56.0027C11.1716 58.571 12.8489 61.4765 15.0727 62.7594L25.4348 68.742L25.4288 77.3526ZM37.8723 71.7059L29.0877 66.6338L29.0962 54.9121C29.0962 52.345 27.4213 49.4407 25.1999 48.1553L14.8244 42.1569V31.7863C14.8244 31.7096 14.839 31.6268 14.8463 31.5477L38.0999 44.9881L38.0817 71.8009C38.0123 71.7692 37.9368 71.7424 37.8723 71.7059ZM42.023 71.7059C41.9341 71.757 41.8319 71.7972 41.7333 71.8398L41.7503 44.9906L65.0502 31.5562C65.0575 31.6317 65.0721 31.712 65.0721 31.785V42.2506L54.7611 48.1955C52.5373 49.4784 50.8587 52.3815 50.8563 54.9498L50.849 66.6082L42.023 71.7059ZM54.4982 68.7189L64.8189 62.7594C67.044 61.4765 68.7213 58.5722 68.7213 56.0027V44.3637L76.0964 40.1108C76.1877 40.0584 76.2656 40.0219 76.3289 39.9976C76.3398 40.0645 76.3471 40.1497 76.3471 40.2556V62.7132C76.3471 63.9669 75.3588 65.6807 74.2718 66.3076L54.7806 77.5607C54.6832 77.6167 54.5871 77.6727 54.4921 77.7275L54.4982 68.7189Z" fill="#333333"/>
<path d="M119.586 13.0909C120.347 13.0909 120.993 13.3571 121.526 13.8895C122.058 14.4219 122.324 15.0684 122.324 15.8289V21.3809C122.324 22.1414 122.058 22.7879 121.526 23.3203C120.993 23.8527 120.347 24.1189 119.586 24.1189H111.753C111.043 24.1189 110.422 23.8527 109.889 23.3203C109.357 22.7879 109.091 22.1414 109.091 21.3809V15.8289C109.091 15.0684 109.357 14.4219 109.889 13.8895C110.422 13.3571 111.043 13.0909 111.753 13.0909H119.586ZM153.583 13.0909C154.293 13.0909 154.914 13.3571 155.446 13.8895C155.979 14.4219 156.245 15.0684 156.245 15.8289V21.3809C156.245 22.1414 155.979 22.7879 155.446 23.3203C154.914 23.8527 154.293 24.1189 153.583 24.1189H138.296V67.3179C138.296 68.0278 138.03 68.6489 137.497 69.1813C136.965 69.7136 136.344 69.9798 135.634 69.9798H129.778C129.017 69.9798 128.371 69.7136 127.838 69.1813C127.306 68.6489 127.04 68.0278 127.04 67.3179V15.8289C127.04 15.0684 127.306 14.4219 127.838 13.8895C128.371 13.3571 129.017 13.0909 129.778 13.0909H153.583V13.0909ZM199.292 47.3916L210.624 64.8081C210.877 65.2137 211.017 65.6701 211.042 66.1771C211.068 66.6841 210.966 67.1405 210.738 67.5461C210.51 67.9517 210.18 68.2813 209.749 68.5348C209.318 68.7883 208.875 68.9151 208.418 68.9151H201.573C201.117 68.9151 200.686 68.801 200.28 68.5728C199.875 68.3447 199.571 68.0531 199.368 67.6982L187.96 49.5211H174.498V66.2532C174.498 66.963 174.232 67.5841 173.699 68.1165C173.167 68.6489 172.546 68.9151 171.836 68.9151H166.132C165.422 68.9151 164.801 68.6489 164.269 68.1165C163.736 67.5841 163.47 66.963 163.47 66.2532V15.7529C163.47 15.043 163.736 14.4219 164.269 13.8895C164.801 13.3571 165.422 13.0909 166.132 13.0909H190.317C196.148 13.0909 200.876 14.7515 204.501 18.0725C208.127 21.3936 209.939 25.8935 209.939 31.5722C209.939 35.2228 209.141 38.3538 207.544 40.965C205.947 43.5762 203.601 45.5409 200.509 46.8592C200.306 46.9606 199.976 47.1127 199.52 47.3155L199.292 47.3916ZM174.498 23.8147V38.7974H189.329C193.689 38.7974 196.655 37.5552 198.227 35.0707C198.734 34.1581 198.988 32.9919 198.988 31.5722C198.988 29.1892 198.202 27.3132 196.63 25.9442C194.906 24.5245 192.574 23.8147 189.633 23.8147H174.498V23.8147ZM264.851 13.0909C265.561 13.0909 266.182 13.3571 266.714 13.8895C267.247 14.4219 267.513 15.043 267.513 15.7529V44.5015C267.513 51.9042 265.256 57.9252 260.744 62.5645C256.231 67.2038 250.438 69.5235 243.365 69.5235C236.292 69.5235 230.499 67.2038 225.987 62.5645C221.474 57.9252 219.218 51.9042 219.218 44.5015V15.7529C219.218 15.043 219.484 14.4219 220.017 13.8895C220.549 13.3571 221.17 13.0909 221.88 13.0909H227.584C228.294 13.0909 228.915 13.3571 229.447 13.8895C229.98 14.4219 230.246 15.043 230.246 15.7529V44.6536C230.246 49.369 231.59 52.9689 234.277 55.4534C236.559 57.5829 239.575 58.6477 243.327 58.6477C247.079 58.6477 250.122 57.5829 252.454 55.4534C255.141 52.9182 256.485 49.3183 256.485 44.6536V15.7529C256.485 15.043 256.738 14.4219 257.245 13.8895C257.752 13.3571 258.361 13.0909 259.071 13.0909H264.851V13.0909ZM319.382 40.3946C322.019 42.0171 323.945 44.3494 325.162 47.3916C325.872 49.0141 326.227 51.0169 326.227 53.3999C326.227 57.1012 325.238 60.2068 323.261 62.7166C321.283 65.2264 318.393 67.0898 314.591 68.3066C312.208 69.1179 309.394 69.5235 306.149 69.5235H281.887C281.177 69.5235 280.556 69.2573 280.024 68.7249C279.491 68.1925 279.225 67.5714 279.225 66.8616V61.3857C279.225 60.6251 279.491 59.9786 280.024 59.4463C280.556 58.9139 281.177 58.6477 281.887 58.6477H306.757C309.698 58.6477 311.878 58.1153 313.298 57.0505C314.515 56.0365 315.123 54.6548 315.123 52.9056C315.123 51.1563 314.489 49.7239 313.222 48.6085C311.65 47.2395 309.292 46.555 306.149 46.555H281.887C281.177 46.555 280.556 46.2888 280.024 45.7564C279.491 45.224 279.225 44.5776 279.225 43.817V38.5693C279.225 37.8594 279.491 37.2383 280.024 36.7059C280.556 36.1735 281.177 35.9073 281.887 35.9073H304.78C306.96 35.9073 308.658 35.5271 309.875 34.7665C310.737 34.2595 311.422 33.5243 311.929 32.5609C312.284 31.8511 312.461 31.0272 312.461 30.0892C312.461 29.1512 312.334 28.3019 312.081 27.5413C311.878 26.9329 311.523 26.3752 311.016 25.8681C309.901 24.6005 308.05 23.9668 305.464 23.9668H281.887C281.177 23.9668 280.556 23.7006 280.024 23.1682C279.491 22.6358 279.225 21.9893 279.225 21.2288V15.7529C279.225 15.043 279.491 14.4219 280.024 13.8895C280.556 13.3571 281.177 13.0909 281.887 13.0909H304.78C311.067 13.0909 315.909 14.8656 319.306 18.4148C322.196 21.3048 323.641 24.9301 323.641 29.2906C323.641 33.9553 322.221 37.6566 319.382 40.3946V40.3946ZM343.872 13.0909C344.582 13.0909 345.203 13.3571 345.735 13.8895C346.267 14.4219 346.534 15.043 346.534 15.7529V66.2532C346.534 66.963 346.267 67.5841 345.735 68.1165C345.203 68.6489 344.582 68.9151 343.872 68.9151H338.168C337.458 68.9151 336.837 68.6489 336.304 68.1165C335.772 67.5841 335.506 66.963 335.506 66.2532V15.7529C335.506 15.043 335.772 14.4219 336.304 13.8895C336.837 13.3571 337.458 13.0909 338.168 13.0909H343.872V13.0909ZM397.414 13.0909C398.124 13.0909 398.732 13.3571 399.239 13.8895C399.747 14.4219 400 15.043 400 15.7529V21.2288C400 21.9386 399.747 22.5597 399.239 23.0921C398.732 23.6245 398.124 23.8907 397.414 23.8907H382.431V66.2532C382.431 66.963 382.165 67.5841 381.633 68.1165C381.1 68.6489 380.479 68.9151 379.769 68.9151H374.065C373.305 68.9151 372.671 68.6489 372.164 68.1165C371.657 67.5841 371.403 66.963 371.403 66.2532V23.8907H356.421C355.711 23.8907 355.09 23.6245 354.557 23.0921C354.025 22.5597 353.759 21.9386 353.759 21.2288V15.7529C353.759 15.043 354.025 14.4219 354.557 13.8895C355.09 13.3571 355.711 13.0909 356.421 13.0909H397.414V13.0909Z" fill="#333333"/>
</svg>
